<svg id="visual" viewBox="0 0 2400 600" width="2400" height="600" xmlns="http://www.w3.org/2000/svg" xmlns:xlink="http://www.w3.org/1999/xlink" version="1.1"><rect x="0" y="0" width="2400" height="600" fill="#FFFFFF"></rect><path d="M0 148L33.3 165C66.7 182 133.3 216 200 217.8C266.7 219.7 333.3 189.3 400 165C466.7 140.7 533.3 122.3 600 113.3C666.7 104.3 733.3 104.7 800 125.3C866.7 146 933.3 187 1000 194.5C1066.7 202 1133.3 176 1200 168C1266.7 160 1333.3 170 1400 180.7C1466.7 191.3 1533.3 202.7 1600 190.8C1666.7 179 1733.3 144 1800 126.8C1866.7 109.7 1933.3 110.3 2000 118.3C2066.7 126.3 2133.3 141.7 2200 157.2C2266.7 172.7 2333.3 188.3 2366.7 196.2L2400 204L2400 601L2366.7 601C2333.3 601 2266.7 601 2200 601C2133.3 601 2066.7 601 2000 601C1933.3 601 1866.7 601 1800 601C1733.3 601 1666.7 601 1600 601C1533.3 601 1466.7 601 1400 601C1333.3 601 1266.7 601 1200 601C1133.3 601 1066.7 601 1000 601C933.3 601 866.7 601 800 601C733.3 601 666.7 601 600 601C533.3 601 466.7 601 400 601C333.3 601 266.7 601 200 601C133.3 601 66.7 601 33.3 601L0 601Z" fill="#f7770f"></path><path d="M0 296L33.3 275.5C66.7 255 133.3 214 200 211.5C266.7 209 333.3 245 400 253.5C466.7 262 533.3 243 600 219.8C666.7 196.7 733.3 169.3 800 167.5C866.7 165.7 933.3 189.3 1000 206C1066.7 222.7 1133.3 232.3 1200 239.2C1266.7 246 1333.3 250 1400 253.3C1466.7 256.7 1533.3 259.3 1600 241.5C1666.7 223.7 1733.3 185.3 1800 180.7C1866.7 176 1933.3 205 2000 212.2C2066.7 219.3 2133.3 204.7 2200 205.5C2266.7 206.3 2333.3 222.7 2366.7 230.8L2400 239L2400 601L2366.7 601C2333.3 601 2266.7 601 2200 601C2133.3 601 2066.7 601 2000 601C1933.3 601 1866.7 601 1800 601C1733.3 601 1666.7 601 1600 601C1533.3 601 1466.7 601 1400 601C1333.3 601 1266.7 601 1200 601C1133.3 601 1066.7 601 1000 601C933.3 601 866.7 601 800 601C733.3 601 666.7 601 600 601C533.3 601 466.7 601 400 601C333.3 601 266.7 601 200 601C133.3 601 66.7 601 33.3 601L0 601Z" fill="#f98022"></path><path d="M0 273L33.3 273.3C66.7 273.7 133.3 274.3 200 277.3C266.7 280.3 333.3 285.7 400 290.8C466.7 296 533.3 301 600 288.3C666.7 275.7 733.3 245.3 800 250.2C866.7 255 933.3 295 1000 293C1066.7 291 1133.3 247 1200 246.3C1266.7 245.7 1333.3 288.3 1400 297.8C1466.7 307.3 1533.3 283.7 1600 262.3C1666.7 241 1733.3 222 1800 220.5C1866.7 219 1933.3 235 2000 235.3C2066.7 235.7 2133.3 220.3 2200 221.8C2266.7 223.3 2333.3 241.7 2366.7 250.8L2400 260L2400 601L2366.7 601C2333.3 601 2266.7 601 2200 601C2133.3 601 2066.7 601 2000 601C1933.3 601 1866.7 601 1800 601C1733.3 601 1666.7 601 1600 601C1533.3 601 1466.7 601 1400 601C1333.3 601 1266.7 601 1200 601C1133.3 601 1066.7 601 1000 601C933.3 601 866.7 601 800 601C733.3 601 666.7 601 600 601C533.3 601 466.7 601 400 601C333.3 601 266.7 601 200 601C133.3 601 66.7 601 33.3 601L0 601Z" fill="#fa8831"></path><path d="M0 338L33.3 341.5C66.7 345 133.3 352 200 349.3C266.7 346.7 333.3 334.3 400 321.2C466.7 308 533.3 294 600 285C666.7 276 733.3 272 800 274.8C866.7 277.7 933.3 287.3 1000 298.2C1066.7 309 1133.3 321 1200 319.5C1266.7 318 1333.3 303 1400 291.5C1466.7 280 1533.3 272 1600 275.3C1666.7 278.7 1733.3 293.3 1800 314.3C1866.7 335.3 1933.3 362.7 2000 376.3C2066.7 390 2133.3 390 2200 387C2266.7 384 2333.3 378 2366.7 375L2400 372L2400 601L2366.7 601C2333.3 601 2266.7 601 2200 601C2133.3 601 2066.7 601 2000 601C1933.3 601 1866.7 601 1800 601C1733.3 601 1666.7 601 1600 601C1533.3 601 1466.7 601 1400 601C1333.3 601 1266.7 601 1200 601C1133.3 601 1066.7 601 1000 601C933.3 601 866.7 601 800 601C733.3 601 666.7 601 600 601C533.3 601 466.7 601 400 601C333.3 601 266.7 601 200 601C133.3 601 66.7 601 33.3 601L0 601Z" fill="#fb913f"></path><path d="M0 427L33.3 428.2C66.7 429.3 133.3 431.7 200 424.7C266.7 417.7 333.3 401.3 400 385.8C466.7 370.3 533.3 355.7 600 350.7C666.7 345.7 733.3 350.3 800 365.2C866.7 380 933.3 405 1000 412.2C1066.7 419.3 1133.3 408.7 1200 408C1266.7 407.3 1333.3 416.7 1400 403.3C1466.7 390 1533.3 354 1600 349.2C1666.7 344.3 1733.3 370.7 1800 387C1866.7 403.3 1933.3 409.7 2000 413.2C2066.7 416.7 2133.3 417.3 2200 406.8C2266.7 396.3 2333.3 374.7 2366.7 363.8L2400 353L2400 601L2366.7 601C2333.3 601 2266.7 601 2200 601C2133.3 601 2066.7 601 2000 601C1933.3 601 1866.7 601 1800 601C1733.3 601 1666.7 601 1600 601C1533.3 601 1466.7 601 1400 601C1333.3 601 1266.7 601 1200 601C1133.3 601 1066.7 601 1000 601C933.3 601 866.7 601 800 601C733.3 601 666.7 601 600 601C533.3 601 466.7 601 400 601C333.3 601 266.7 601 200 601C133.3 601 66.7 601 33.3 601L0 601Z" fill="#fd994b"></path><path d="M0 472L33.3 471.8C66.7 471.7 133.3 471.3 200 456C266.7 440.7 333.3 410.3 400 399.2C466.7 388 533.3 396 600 399.2C666.7 402.3 733.3 400.7 800 411.3C866.7 422 933.3 445 1000 444.5C1066.7 444 1133.3 420 1200 416.7C1266.7 413.3 1333.3 430.7 1400 438.7C1466.7 446.7 1533.3 445.3 1600 432.8C1666.7 420.3 1733.3 396.7 1800 394C1866.7 391.3 1933.3 409.7 2000 419.5C2066.7 429.3 2133.3 430.7 2200 422.5C2266.7 414.3 2333.3 396.7 2366.7 387.8L2400 379L2400 601L2366.7 601C2333.3 601 2266.7 601 2200 601C2133.3 601 2066.7 601 2000 601C1933.3 601 1866.7 601 1800 601C1733.3 601 1666.7 601 1600 601C1533.3 601 1466.7 601 1400 601C1333.3 601 1266.7 601 1200 601C1133.3 601 1066.7 601 1000 601C933.3 601 866.7 601 800 601C733.3 601 666.7 601 600 601C533.3 601 466.7 601 400 601C333.3 601 266.7 601 200 601C133.3 601 66.7 601 33.3 601L0 601Z" fill="#fda158"></path><path d="M0 452L33.3 455.7C66.7 459.3 133.3 466.7 200 471.2C266.7 475.7 333.3 477.3 400 485.8C466.7 494.3 533.3 509.7 600 507.5C666.7 505.3 733.3 485.7 800 481.8C866.7 478 933.3 490 1000 488.3C1066.7 486.7 1133.3 471.3 1200 464.5C1266.7 457.7 1333.3 459.3 1400 460C1466.7 460.7 1533.3 460.3 1600 463.2C1666.7 466 1733.3 472 1800 467.5C1866.7 463 1933.3 448 2000 446.5C2066.7 445 2133.3 457 2200 467.7C2266.7 478.3 2333.3 487.7 2366.7 492.3L2400 497L2400 601L2366.7 601C2333.3 601 2266.7 601 2200 601C2133.3 601 2066.7 601 2000 601C1933.3 601 1866.7 601 1800 601C1733.3 601 1666.7 601 1600 601C1533.3 601 1466.7 601 1400 601C1333.3 601 1266.7 601 1200 601C1133.3 601 1066.7 601 1000 601C933.3 601 866.7 601 800 601C733.3 601 666.7 601 600 601C533.3 601 466.7 601 400 601C333.3 601 266.7 601 200 601C133.3 601 66.7 601 33.3 601L0 601Z" fill="#fea964"></path><path d="M0 519L33.3 525.8C66.7 532.7 133.3 546.3 200 549.3C266.7 552.3 333.3 544.7 400 535.2C466.7 525.7 533.3 514.3 600 509.8C666.7 505.3 733.3 507.7 800 519C866.7 530.3 933.3 550.7 1000 557.7C1066.7 564.7 1133.3 558.3 1200 545.8C1266.7 533.3 1333.3 514.7 1400 517C1466.7 519.3 1533.3 542.7 1600 545.2C1666.7 547.7 1733.3 529.3 1800 518.7C1866.7 508 1933.3 505 2000 503.3C2066.7 501.7 2133.3 501.3 2200 508C2266.7 514.7 2333.3 528.3 2366.7 535.2L2400 542L2400 601L2366.7 601C2333.3 601 2266.7 601 2200 601C2133.3 601 2066.7 601 2000 601C1933.3 601 1866.7 601 1800 601C1733.3 601 1666.7 601 1600 601C1533.3 601 1466.7 601 1400 601C1333.3 601 1266.7 601 1200 601C1133.3 601 1066.7 601 1000 601C933.3 601 866.7 601 800 601C733.3 601 666.7 601 600 601C533.3 601 466.7 601 400 601C333.3 601 266.7 601 200 601C133.3 601 66.7 601 33.3 601L0 601Z" fill="#ffb171"></path></svg>